<?xml version="1.0" encoding="UTF-8" standalone="no"?>
<svg
   xmlns:dc="http://purl.org/dc/elements/1.1/"
   xmlns:cc="http://creativecommons.org/ns#"
   xmlns:rdf="http://www.w3.org/1999/02/22-rdf-syntax-ns#"
   xmlns:svg="http://www.w3.org/2000/svg"
   xmlns="http://www.w3.org/2000/svg"
   xmlns:sodipodi="http://sodipodi.sourceforge.net/DTD/sodipodi-0.dtd"
   xmlns:inkscape="http://www.inkscape.org/namespaces/inkscape"
   version="1.1"
   id="svg2"
   xml:space="preserve"
   width="500"
   height="200"
   viewBox="0 0 500 200"
   sodipodi:docname="clinic-logo.svg"
   inkscape:version="1.0 (4035a4fb49, 2020-05-01)"><metadata
     id="metadata8"><rdf:RDF><cc:Work
         rdf:about=""><dc:format>image/svg+xml</dc:format><dc:type
           rdf:resource="http://purl.org/dc/dcmitype/StillImage" /><dc:title></dc:title></cc:Work></rdf:RDF></metadata><defs
     id="defs6"><rect
       id="rect2183"
       height="80.593666"
       width="320.3862"
       y="777.89325"
       x="142.02435" /><clipPath
       clipPathUnits="userSpaceOnUse"
       id="clipPath26"><path
         d="M 0,800 H 1000 V 0 H 0 Z"
         id="path24" /></clipPath></defs><sodipodi:namedview
     inkscape:guide-bbox="true"
     showguides="true"
     inkscape:document-rotation="0"
     pagecolor="#ffffff"
     bordercolor="#666666"
     borderopacity="1"
     objecttolerance="10"
     gridtolerance="10"
     guidetolerance="10"
     inkscape:pageopacity="0"
     inkscape:pageshadow="2"
     inkscape:window-width="1920"
     inkscape:window-height="1022"
     id="namedview4"
     showgrid="false"
     inkscape:zoom="0.79687494"
     inkscape:cx="148.98693"
     inkscape:cy="7.5995411"
     inkscape:window-x="0"
     inkscape:window-y="29"
     inkscape:window-maximized="1"
     inkscape:current-layer="g10" /><g
     id="g10"
     inkscape:groupmode="layer"
     inkscape:label="LOGO(2)"
     transform="matrix(1.3333333,0,0,-1.3333333,0,1066.6667)"><g
       transform="matrix(0.90697891,0,0,0.90697891,-0.07981204,47.999549)"
       id="g2179"><g
         transform="matrix(0.33528617,0,0,0.33528617,196.16186,720.71268)"
         id="g28"><path
           id="path30"
           style="fill:#e9495b;fill-opacity:1;fill-rule:nonzero;stroke:none"
           d="m 0,0 c -0.398,-0.206 -1.084,-0.25 -1.46,-0.045 -12.551,6.827 -24.296,14.712 -33.371,25.992 -4.239,5.27 -7.398,11.089 -8.662,17.836 -1.992,10.637 3.169,21.049 12.558,24.833 2.31,0.932 4.853,1.282 7.289,1.9 0.034,-0.12 0.068,-0.241 0.102,-0.361 5.973,-0.053 10.864,-2.589 14.822,-6.869 1.903,-2.057 3.442,-4.47 5.005,-6.815 0.874,-1.312 1.805,-2.295 3.477,-2.242 1.606,0.051 2.427,1.082 3.262,2.336 1.856,2.789 3.597,5.747 5.91,8.125 8.137,8.367 20.157,7.545 27.222,-1.764 5.409,-7.127 6.105,-15.104 3.623,-23.479 C 37.299,31.083 32.321,24.278 26.196,18.242 18.509,10.669 9.535,4.924 0,0 m 122.495,29.919 c -0.311,1.675 -1.673,2.684 -3.812,2.701 -3.905,0.032 -7.81,0.024 -11.715,0.007 -2.679,-0.012 -3.499,-0.63 -4.371,-3.197 -5.763,-16.978 -11.524,-33.955 -17.29,-50.931 -0.19,-0.558 -0.424,-1.1 -0.638,-1.649 l -0.275,0.088 v 1.747 c 0,28.946 0,57.893 0,86.84 0,0.488 0.026,0.979 -0.014,1.464 -0.123,1.475 -1.142,2.662 -2.563,3.028 -2.11,0.543 -3.688,-0.506 -4.396,-2.948 C 71.766,47.557 66.115,28.042 60.461,8.529 60.314,8.022 60.142,7.522 59.981,7.02 c -0.477,1.219 -0.646,2.364 -0.772,3.513 -0.241,2.201 -1.444,3.55 -3.291,3.651 -1.867,0.101 -3.192,-1.032 -3.731,-3.195 -1.233,-4.942 -2.835,-9.735 -5.715,-14.005 -3.018,-4.472 -7.02,-7.542 -12.401,-8.607 -3.303,-0.654 -6.599,-0.483 -9.886,0.166 -6.202,1.227 -11.838,3.787 -17.304,7.221 0.6,0.365 1.045,0.65 1.503,0.913 7.904,4.527 15.351,9.683 21.922,16.027 6.859,6.623 12.473,14.109 15.592,23.232 3.561,10.415 3.056,20.488 -3.192,29.82 -8.622,12.876 -26.343,16.479 -38.854,3.764 -1.501,-1.526 -2.83,-3.219 -4.35,-4.962 -0.933,1.086 -1.821,2.179 -2.772,3.215 -12.974,14.134 -34.493,11.872 -43.756,-4.634 -4.464,-7.954 -4.752,-16.343 -2.209,-24.929 2.659,-8.979 7.925,-16.354 14.402,-22.939 7.31,-7.435 15.778,-13.339 24.76,-18.55 0.428,-0.249 0.828,-0.546 1.24,-0.821 l 0.009,-0.483 c -8.7,-3.248 -17.4,-6.496 -26.081,-9.736 -0.036,0.052 -0.068,0.098 -0.101,0.145 -0.162,-2.105 0.649,-4.087 1.165,-6.233 0.262,-0.117 0.492,-0.272 0.692,-0.454 0.136,0.094 0.294,0.18 0.507,0.247 10.572,3.303 20.912,7.209 30.924,11.966 0.416,0.197 1.072,0.245 1.474,0.057 1.764,-0.823 3.521,-1.681 5.199,-2.666 5.594,-3.281 11.496,-5.738 17.87,-7.041 12.944,-2.646 23.525,1.853 30.471,12.994 0.16,0.256 0.371,0.481 0.737,0.95 0.288,-2.159 0.547,-4.032 0.787,-5.907 0.367,-2.862 1.326,-4.133 3.28,-4.315 1.956,-0.182 3.225,1.028 4.032,3.817 4.886,16.896 9.774,33.789 14.667,50.682 0.103,0.357 0.264,0.698 0.398,1.047 0.08,-0.028 0.161,-0.055 0.242,-0.082 v -1.746 c 0,-27.727 0,-55.454 0.001,-83.18 0,-0.44 -0.023,-0.88 0.008,-1.317 0.148,-2.093 1.783,-3.479 3.869,-3.273 1.752,0.173 2.582,1.315 3.109,2.872 7.894,23.303 15.813,46.596 23.684,69.905 0.393,1.165 0.908,1.604 2.155,1.565 2.925,-0.091 5.858,-0.079 8.785,-0.006 2.439,0.062 3.875,1.89 3.445,4.211" /></g><g
         transform="matrix(0.33528617,0,0,0.33528617,183.5834,715.8805)"
         id="g32"><path
           id="path34"
           style="fill:#e9495b;fill-opacity:1;fill-rule:nonzero;stroke:none"
           d="m 0,0 c 3.246,-2.73 3.674,-7.563 0.957,-10.796 -2.718,-3.231 -7.554,-3.637 -10.8,-0.906 -3.247,2.73 -3.676,7.564 -0.957,10.796 C -8.082,2.324 -3.247,2.73 0,0 m -17.778,-10.404 c 2.021,-6.05 12.544,-8.241 18.567,-6.23 6.022,2.013 9.265,8.548 7.244,14.597 C 6.012,4.014 -0.51,7.287 -6.532,5.275 -12.553,3.263 -19.799,-4.354 -17.778,-10.404" /></g><g
         transform="matrix(0.33528617,0,0,0.33528617,174.85694,710.25333)"
         id="g36"><path
           id="path38"
           style="fill:#e9495b;fill-opacity:1;fill-rule:nonzero;stroke:none"
           d="m 0,0 c -2.381,-2.458 -2.422,-6.281 -0.092,-8.537 2.331,-2.258 6.15,-2.094 8.531,0.365 2.381,2.459 3.646,7.547 1.316,9.804 C 7.425,3.889 2.381,2.46 0,0" /></g><g
         transform="matrix(0.33528617,0,0,0.33528617,181.4844,706.981)"
         id="g40"><path
           id="path42"
           style="fill:#e9495b;fill-opacity:1;fill-rule:nonzero;stroke:none"
           d="M 0,0 C 0.451,2.556 -0.915,6.288 -3.336,6.715 -5.758,7.143 -8.319,4.103 -8.769,1.548 -9.22,-1.007 -7.623,-3.426 -5.201,-3.853 -2.779,-4.28 -0.452,-2.554 0,0" /></g><g
         transform="matrix(0.33528617,0,0,0.33528617,174.27428,715.08681)"
         id="g44"><path
           id="path46"
           style="fill:#e9495b;fill-opacity:1;fill-rule:nonzero;stroke:none"
           d="m 0,0 c -3.409,0.3 -6.404,-2.075 -6.689,-5.308 -0.285,-3.231 2.249,-6.094 5.657,-6.394 3.41,-0.301 8.159,1.92 8.444,5.151 C 7.697,-3.318 3.409,-0.301 0,0" /></g><g
         transform="matrix(0.33528617,0,0,0.33528617,177.42496,715.54062)"
         id="g48"><path
           id="path50"
           style="fill:#e9495b;fill-opacity:1;fill-rule:nonzero;stroke:none"
           d="M 0,0 C 1.552,1.908 0.141,5.624 -1.872,7.26 -3.885,8.896 -6.774,8.678 -8.326,6.77 -9.877,4.861 -9.502,1.987 -7.489,0.352 -5.477,-1.285 -1.551,-1.907 0,0" /></g></g><text
       y="-691.47998"
       x="212.41971"
       transform="scale(1,-1)"
       style="font-variant:normal;font-weight:bold;font-stretch:normal;font-size:27.4286px;font-family:VNI-Revue;-inkscape-font-specification:VNI-Revue-Bold;writing-mode:lr-tb;fill:#25aae3;fill-opacity:1;fill-rule:nonzero;stroke:none;stroke-width:0.472908"
       id="text14"><tspan
         style="stroke-width:0.472908"
         x="212.41971 234.85631 251.69753 260.14551 269.3067 290.37192 300.57535 322.68283 344.79031"
         y="-691.47998"
         sodipodi:role="line"
         id="tspan12">BS. GIANG</tspan></text><text
       y="-736.75006"
       x="152.94435"
       transform="scale(1,-1)"
       style="font-style:normal;font-variant:normal;font-weight:bold;font-stretch:normal;font-size:29.1739px;font-family:Acme;-inkscape-font-specification:'Acme Bold';writing-mode:lr-tb;fill:#e9495b;fill-opacity:1;fill-rule:nonzero;stroke:none;stroke-width:0.553967"
       id="text18"><tspan
         y="-736.75006"
         x="152.94435"
         style="font-style:normal;font-variant:normal;font-weight:bold;font-stretch:normal;font-size:29.1739px;font-family:Acme;-inkscape-font-specification:'Acme Bold';stroke-width:0.553967"
         sodipodi:role="line"
         id="tspan16">Phong Kham Thu Y</tspan></text><g
       transform="matrix(0.2781782,0,0,0.2781782,-70.334552,594.29737)"
       id="g2137"><g
         transform="translate(279.7876,375.6406)"
         id="g52"><path
           id="path54"
           style="fill:#15698e;fill-opacity:1;fill-rule:nonzero;stroke:none"
           d="m 0,0 c 9.214,5.935 18.133,11.679 26.952,17.359 -3.542,12.61 -8.16,25.177 -10.533,38.154 -11.38,62.23 1.647,118.972 40.671,169.039 31.682,40.646 73.391,66.204 123.876,75.527 65.185,12.039 123.916,-3.636 174.661,-46.622 38.138,-32.308 61.496,-73.721 69.47,-122.859 9.913,-61.084 -4.514,-116.642 -43.381,-165.066 -32.361,-40.32 -74.494,-65.764 -125.422,-74.002 -70.958,-11.477 -132.973,8.145 -184.231,59.181 -8.214,8.18 -15.163,17.662 -22.374,26.796 -2.108,2.67 -3.663,3.689 -7.251,2.872 -9.492,-2.163 -19.136,-3.659 -29.064,-5.484 47.781,-88.507 169.729,-150.064 292.654,-103.651 128.06,48.353 189.427,195.033 134.78,321.066 C 386.5,317.56 236.896,372.884 114.298,312.036 -12.517,249.096 -47.704,104.645 0,0" /></g><g
         transform="translate(273.0645,356.4492)"
         id="g56"><path
           id="path58"
           style="fill:#25aae3;fill-opacity:1;fill-rule:nonzero;stroke:none"
           d="m 0,0 c 15.688,5.246 29.551,10.913 43.934,14.499 42.907,10.696 85.162,6.426 127.22,-6.099 27.5,-8.189 55.42,-15.117 83.419,-21.418 15.588,-3.507 31.696,-3.662 47.703,-0.936 25.026,4.262 41.256,18.561 49.149,42.425 4.945,14.952 6.374,30.436 6.019,47.545 -1.165,-2.26 -1.818,-3.307 -2.269,-4.434 C 343.288,41.876 320.629,25.734 289.772,20.756 259.176,15.818 229.688,22.11 200.776,31.61 170.321,41.617 139.248,47.36 107.115,45.511 69.587,43.351 35.707,31.578 7.272,6.157 5.217,4.319 3.064,2.589 0,0" /></g><g
         transform="translate(574.4053,337.8369)"
         id="g60"><path
           id="path62"
           style="fill:#15698e;fill-opacity:1;fill-rule:nonzero;stroke:none"
           d="m 0,0 c -5.885,0 -13.065,-0.014 -20.245,0.002 -28.025,0.063 -54.71,7.516 -81.403,14.853 -19.816,5.448 -39.366,12.094 -59.424,16.377 -37.212,7.947 -74.304,6.117 -110.789,-5.136 -1.267,-0.391 -2.452,-1.045 -3.497,-2.205 8.078,1.317 16.14,2.737 24.236,3.931 18.662,2.754 37.315,2.225 56.033,0.19 32.067,-3.488 61.76,-16.014 92.681,-23.845 21.164,-5.361 42.44,-9.833 64.358,-10.711 C -23.577,-7.124 -6.794,-4.178 0,0" /></g><g
         transform="translate(363.5498,531.1797)"
         id="g64"><path
           id="path66"
           style="fill:#25aae3;fill-opacity:1;fill-rule:nonzero;stroke:none"
           d="m 0,0 c 0,7.185 0.122,14.374 -0.085,21.552 -0.053,1.828 -0.83,3.835 -1.841,5.391 -1.961,3.019 -6.002,2.599 -7.153,-0.797 -0.848,-2.501 -1.301,-5.288 -1.219,-7.925 0.256,-8.153 0.818,-16.298 1.323,-24.442 0.789,-12.704 1.658,-25.404 2.438,-38.109 0.376,-6.12 -1.213,-11.624 -5.342,-16.313 -3.917,-4.447 -5.962,-9.75 -6.798,-15.557 -1.573,-10.907 -6.619,-19.558 -16.385,-25.09 -5.792,-3.281 -7.779,-8.641 -8.519,-14.823 -0.558,-4.667 -1.338,-9.308 -1.984,-13.965 -0.143,-1.024 -0.192,-2.068 -0.193,-3.104 -0.002,-4.32 1.533,-6.584 5.743,-7.336 3.077,-0.549 6.323,-0.719 9.426,-0.4 3.165,0.325 3.946,2.647 2.068,5.267 -0.831,1.16 -1.96,2.144 -3.083,3.047 -2.08,1.671 -2.967,3.818 -2.018,6.246 1.428,3.648 2.999,7.275 4.912,10.686 1.569,2.797 4.367,4.394 7.417,5.349 2.9,0.908 5.83,1.726 8.766,2.514 4.896,1.316 8.98,3.879 12.226,7.776 1.328,1.595 2.718,3.141 3.986,4.783 6.792,8.799 15.933,11.417 26.549,10.107 7.179,-0.886 14.031,-3.027 20.806,-5.484 4.305,-1.561 4.406,-1.518 6.152,2.643 6.612,15.752 6.226,11.549 3.462,28.731 -0.965,6.001 -2.349,11.934 -3.508,17.905 -0.299,1.537 -0.84,2.011 -2.647,1.858 -12.263,-1.04 -24.535,-2.076 -36.825,-2.671 -7.099,-0.343 -12.053,3.325 -14.757,9.959 -2.776,6.815 -3.069,14.003 -3.24,21.205 C -0.41,-7.333 -0.338,-3.666 -0.338,0 Z" /></g><g
         transform="translate(432.978,493.7598)"
         id="g68"><path
           id="path70"
           style="fill:#25aae3;fill-opacity:1;fill-rule:nonzero;stroke:none"
           d="m 0,0 c 1.297,-6.887 2.565,-13.603 3.823,-20.32 0.203,-1.088 0.332,-2.189 0.546,-3.273 0.692,-3.505 2.115,-4.733 5.728,-4.61 3.525,0.12 7.043,0.443 10.564,0.684 12.673,0.87 25.131,-0.539 37.442,-3.524 0.585,-0.143 1.173,-0.277 2.271,-0.536 0.617,3.55 1.563,6.905 1.713,10.295 0.288,6.491 0.171,13.003 0.089,19.504 -0.01,0.815 -0.613,1.953 -1.294,2.379 -6.54,4.093 -8.896,10.483 -9.911,17.637 -0.223,1.568 -0.31,3.154 -0.179,4.778 0.476,-2.263 0.875,-4.544 1.444,-6.783 1.143,-4.493 3.037,-8.614 6.458,-11.87 2.405,-2.289 5.143,-3.976 8.552,-4.279 5.026,-0.449 8.923,2.733 9.489,7.755 0.508,4.508 -0.567,8.798 -1.834,13.059 -0.213,0.714 -0.438,1.425 -0.197,2.292 0.902,-2.659 1.906,-5.29 2.663,-7.989 0.36,-1.284 0.941,-1.936 2.238,-1.95 6.434,-0.069 12.867,-0.136 19.3,-0.195 0.258,-0.003 0.516,0.076 1.356,0.209 -1.761,0.318 -2.961,0.534 -4.563,0.822 0.97,0.25 1.57,0.417 2.176,0.558 5.2,1.201 7.633,3.758 8.334,9.004 0.097,0.733 -0.238,1.858 -0.78,2.29 -3.61,2.874 -3.646,2.829 -2.048,7.192 -2.084,0.507 -4.157,0.956 -6.197,1.524 -1.658,0.462 -3.311,0.982 -4.907,1.624 -2.689,1.082 -4.425,2.964 -4.784,5.984 -0.332,2.785 -2.023,4.733 -4.433,5.89 -6.425,3.083 -13.183,4.666 -20.321,3.455 -4.9,-0.83 -8.581,-3.807 -11.448,-7.683 C 46.684,37.696 42.246,31.343 37.771,25.019 36.533,23.27 35.352,21.474 34.251,19.635 28.665,10.3 20.31,4.879 9.912,2.333 6.629,1.529 3.333,0.783 0,0" /></g><g
         transform="translate(371.5244,437.3599)"
         id="g72"><path
           id="path74"
           style="fill:#25aae3;fill-opacity:1;fill-rule:nonzero;stroke:none"
           d="m 0,0 c -1.683,-1.659 -3.537,-3.179 -5.009,-5.007 -2.435,-3.023 -4.715,-6.115 -8.338,-7.914 -0.502,-0.25 -0.849,-1.746 -0.6,-2.416 1.368,-3.671 2.622,-7.444 4.518,-10.845 3.721,-6.672 8.674,-12.455 14.063,-17.861 2.179,-2.187 4.78,-3.201 7.837,-3.142 2.346,0.045 4.692,0.062 7.037,0.124 1.623,0.043 3.262,0.129 3.837,2.092 0.459,1.565 -0.644,3.889 -2.276,4.715 -0.608,0.307 -1.288,0.529 -1.96,0.643 -6.326,1.076 -11.044,4.925 -15.383,9.215 -4.773,4.719 -6.007,10.772 -5.286,17.22 0.474,4.234 1.358,8.421 2.059,12.629 C 0.333,-0.365 0.167,-0.183 0,0" /></g><g
         transform="translate(546.5596,452.2861)"
         id="g76"><path
           id="path78"
           style="fill:#25aae3;fill-opacity:1;fill-rule:nonzero;stroke:none"
           d="m 0,0 c -0.603,0.084 -1.205,0.169 -2.056,0.289 1.166,0.421 2.152,0.657 3.017,1.117 1.859,0.989 1.95,2.092 0.827,3.92 -1.278,2.079 -2.471,4.235 -3.456,6.466 -1.202,2.719 -3.058,4.539 -5.927,5.347 -3.425,0.964 -4.144,2.267 -3.37,5.828 0.164,0.752 0.138,1.546 0.21,2.449 -3.191,-1.192 -6.078,-6.92 -5.497,-10.428 -1.352,1.769 -0.922,3.524 2.35,10.833 -0.607,-0.707 -1.326,-1.345 -1.801,-2.131 -2.219,-3.662 -5.279,-6.298 -9.12,-8.194 -1.9,-0.937 -3.819,-2.116 -5.27,-3.626 -5.068,-5.271 -11.192,-6.168 -17.958,-4.837 -6.847,1.347 -13.639,3.062 -20.538,4.039 -9.66,1.369 -19.392,2.145 -29.165,0.852 -1.98,-0.261 -4.007,-0.256 -6.011,-0.242 -4.309,0.029 -6.23,1.575 -7.042,5.772 -0.762,3.936 -1.134,7.96 -2.099,11.84 -2.067,8.304 -4.075,16.647 -6.712,24.778 -3.903,12.033 -13.267,17.069 -25.208,18.291 -0.547,0.056 -1.225,0.2 -1.635,-0.044 -1.048,-0.626 -2.409,-1.28 -2.794,-2.258 -0.224,-0.569 1.038,-1.987 1.914,-2.648 0.838,-0.633 2.028,-0.832 3.089,-1.13 7.618,-2.142 12.934,-6.704 15.891,-14.199 3.069,-7.778 4.86,-15.848 6.283,-24.025 1.091,-6.266 1.989,-12.564 3.018,-18.84 0.581,-3.541 0.005,-6.915 -1.469,-10.115 -4.394,-9.538 -8.661,-19.143 -13.366,-28.528 -3.602,-7.185 -7.083,-14.385 -9.478,-22.068 -0.869,-2.788 -1.548,-5.62 -0.692,-8.555 0.756,-2.588 4.881,-3.736 6.765,-1.779 0.479,0.498 0.625,1.681 0.425,2.413 -1.944,7.107 0.122,12.779 6.24,17 5.514,3.805 10.987,7.67 16.487,11.496 10.535,7.331 21.914,9.297 34.323,5.716 5.295,-1.528 10.739,-2.55 16.125,-3.753 2.737,-0.611 3.569,-1.784 3.277,-4.523 -0.248,-2.332 -0.552,-4.697 -0.422,-7.025 0.338,-6.027 0.378,-12.018 -0.626,-17.996 -0.19,-1.133 -0.2,-2.425 0.168,-3.483 0.35,-1.01 1.144,-2.328 2.021,-2.595 1.869,-0.57 3.931,-0.769 5.886,-0.654 0.758,0.043 1.747,1.231 2.081,2.106 0.397,1.04 -0.293,1.854 -1.47,2.335 -0.631,0.257 -1.388,1.147 -1.414,1.779 -0.095,2.379 -0.394,4.914 0.269,7.125 1.207,4.02 2.916,7.908 4.657,11.742 2.231,4.915 5.913,8.443 11.282,9.586 6.562,1.396 10.767,5.114 13.638,11.171 2.048,4.321 4.998,8.274 7.918,12.106 3.042,3.994 7.162,6.174 12.436,5.777 1.33,-0.101 2.711,0.473 4.068,0.737 C 0.046,-0.511 0.023,-0.255 0,0" /></g><g
         transform="translate(528.4561,440.1865)"
         id="g80"><path
           id="path82"
           style="fill:#25aae3;fill-opacity:1;fill-rule:nonzero;stroke:none"
           d="m 0,0 c -1.7,-2.801 -3.63,-5.49 -5.05,-8.427 -2.611,-5.401 -5.831,-9.941 -11.882,-10.682 3.551,-3.22 7.286,-6.339 10.707,-9.771 5.613,-5.631 11.099,-11.391 16.484,-17.239 3.179,-3.453 7.191,-5.03 11.587,-5.911 1.23,-0.247 2.752,-0.491 3.288,1.259 0.42,1.374 -0.702,3.449 -2.302,3.652 -4.183,0.531 -6.586,3.36 -8.673,6.478 -4.524,6.762 -9.806,13.247 -11.724,21.299 -1.315,5.517 -1.343,11.341 -1.924,17.03 -0.073,0.716 -0.01,1.445 -0.01,2.168 z" /></g><g
         transform="translate(462.8774,426.0913)"
         id="g84"><path
           id="path86"
           style="fill:#25aae3;fill-opacity:1;fill-rule:nonzero;stroke:none"
           d="m 0,0 c -6.123,1.628 -12.019,1.579 -17.885,-0.428 -1.077,-0.369 -1.478,-0.947 -1.44,-2.134 0.155,-4.831 0.102,-9.671 0.33,-14.498 0.076,-1.599 0.394,-3.41 1.24,-4.708 2.901,-4.454 6.095,-8.718 9.157,-13.068 0.955,-1.357 2.222,-1.97 3.873,-2.001 1.517,-0.03 3.044,-0.364 4.543,-0.251 0.884,0.066 2.471,0.805 2.443,1.128 -0.093,1.043 -0.731,2.065 -1.281,3.025 -0.16,0.28 -0.717,0.409 -1.113,0.468 -4.532,0.675 -6.761,3.962 -8.602,7.631 -0.996,1.984 -0.944,4.041 0.277,5.937 3.284,5.098 5.515,10.654 7.312,16.412 C -0.905,-1.714 -0.468,-1.002 0,0" /></g><g
         transform="translate(463.5366,410.1152)"
         id="g88"><path
           id="path90"
           style="fill:#25aae3;fill-opacity:1;fill-rule:nonzero;stroke:none"
           d="m 0,0 c 0,-4.147 -0.144,-8.301 0.049,-12.438 0.136,-2.889 3.335,-6.343 6.095,-7.045 3.951,-1.006 7.922,-1.107 11.924,-0.251 1.267,0.271 1.991,0.775 1.816,2.224 -0.098,0.812 0.043,1.656 0.112,2.484 0.251,3.019 -0.454,3.869 -3.523,4.183 -0.411,0.042 -0.83,0.011 -1.245,0.021 -3.522,0.083 -4.232,0.608 -4.247,4.047 -0.025,6 0.136,12 0.28,17.999 0.026,1.081 -0.035,1.845 -1.282,2.195 C 8.186,13.923 6.454,14.64 4.671,15.187 1.967,16.017 0.234,15.02 -0.394,12.212 -0.631,11.148 -0.632,10.02 -0.643,8.92 -0.675,5.947 -0.654,2.974 -0.654,0.001 -0.436,0 -0.218,0 0,0" /></g><g
         transform="translate(500.4648,415.0518)"
         id="g92"><path
           id="path94"
           style="fill:#25aae3;fill-opacity:1;fill-rule:nonzero;stroke:none"
           d="m 0,0 c -1.382,-3.11 -2.701,-5.982 -3.91,-8.9 -0.198,-0.478 -0.073,-1.242 0.181,-1.729 1.371,-2.636 2.851,-5.214 4.251,-7.835 1.31,-2.449 3.378,-3.873 6.061,-4.202 3.429,-0.42 6.881,-0.744 10.331,-0.851 3.376,-0.103 5.177,1.33 5.24,3.725 0.074,2.798 -2.742,5.97 -5.455,6.097 -0.755,0.035 -1.538,0.026 -2.272,-0.13 C 11,-14.552 8.437,-13.219 6.595,-10.447 4.421,-7.176 2.394,-3.808 0,0" /></g><g
         transform="translate(374.4946,438.2183)"
         id="g96"><path
           id="path98"
           style="fill:#25aae3;fill-opacity:1;fill-rule:nonzero;stroke:none"
           d="m 0,0 c 5.057,-0.507 9.064,-3.235 13.269,-5.646 2.148,-1.231 4.71,-2.097 7.166,-2.352 3.729,-0.387 5.598,2.051 5.013,5.772 C 24.536,3.578 21.54,6.263 15.639,6.443 10.869,6.588 6.296,5.778 2,3.557 0.607,2.837 -0.153,1.923 0,0" /></g><g
         transform="translate(539.4502,520.1123)"
         id="g100"><path
           id="path102"
           style="fill:#25aae3;fill-opacity:1;fill-rule:nonzero;stroke:none"
           d="M 0,0 C 1.864,2.407 1.963,4.373 0.232,5.489 -1.072,6.332 -2.244,6.191 -3.082,4.791 -4.101,3.089 -3.051,1.476 0,0" /></g><g
         transform="translate(655.7002,562.0396)"
         id="g104"><path
           id="path106"
           style="fill:#25aae3;fill-opacity:1;fill-rule:nonzero;stroke:none"
           d="m 0,0 c -0.197,0.02 -0.426,-0.019 -0.587,0.068 -0.539,0.289 -1.057,0.619 -1.578,0.939 -43.059,26.46 -86.116,52.92 -129.175,79.38 -3.187,1.959 -6.377,3.915 -9.568,5.866 -0.46,0.282 -0.94,0.53 -1.343,0.757 -0.798,-0.127 -1.333,-0.577 -1.916,-0.914 -7.599,-4.387 -15.19,-8.785 -22.784,-13.18 -34.847,-20.171 -69.695,-40.343 -104.542,-60.514 -2.531,-1.465 -5.089,-2.886 -7.588,-4.404 -0.92,-0.559 -1.84,-0.834 -2.893,-0.755 -0.271,0.021 -0.544,0.003 -0.817,0.003 -11.976,0 -23.953,-0.001 -35.93,0.003 -0.678,0 -1.357,0.036 -2.035,0.054 -0.174,0.005 -0.259,0.092 -0.241,0.266 0.007,0.057 0.023,0.137 0.063,0.164 0.503,0.346 1.001,0.701 1.52,1.022 8.275,5.113 16.552,10.222 24.829,15.332 36.29,22.405 72.579,44.811 108.871,67.212 2.221,1.371 1.563,1.18 4.191,1.182 12.317,0.007 24.634,0.005 36.951,0.001 2.601,-0.001 1.993,0.147 3.987,-1.144 45.963,-29.767 91.923,-59.54 137.882,-89.312 0.799,-0.518 1.59,-1.047 2.383,-1.574 0.173,-0.115 0.299,-0.265 0.284,-0.492 z" /></g><g
         transform="translate(662.4492,553.146)"
         id="g108"><path
           id="path110"
           style="fill:#25aae3;fill-opacity:1;fill-rule:nonzero;stroke:none"
           d="m 0,0 c -0.508,0.339 -0.997,0.709 -1.525,1.013 -27.288,15.706 -54.579,31.407 -81.874,47.102 -0.793,0.456 -1.545,1.004 -2.523,1.285 -3.977,-2.076 -7.871,-4.394 -11.931,-6.552 -0.259,0.095 -0.568,0.152 -0.814,0.308 -5.378,3.421 -10.75,6.853 -16.119,10.289 -0.124,0.079 -0.221,0.21 -0.308,0.334 -0.031,0.043 -0.007,0.14 0.018,0.203 0.024,0.061 0.076,0.15 0.124,0.157 0.304,0.038 0.609,0.079 0.914,0.08 9.143,0.004 18.286,-0.008 27.43,0.018 0.97,0.003 1.772,-0.267 2.581,-0.776 10.01,-6.299 20.036,-12.575 30.055,-18.86 C -36.664,23.746 -19.357,12.889 -2.053,2.029 -1.403,1.622 -0.774,1.183 -0.136,0.758 0.207,0.53 0.083,0.24 -0.029,-0.048 Z" /></g><g
         transform="translate(514.5879,575.9585)"
         id="g112"><path
           id="path114"
           style="fill:#25aae3;fill-opacity:1;fill-rule:nonzero;stroke:none"
           d="M 0,0 C 0,-1.763 0.006,-3.526 -0.004,-5.29 -0.007,-5.69 -0.334,-6 -0.73,-6.03 -0.959,-6.048 -1.188,-6.071 -1.418,-6.071 -4.255,-6.073 -7.093,-6.073 -9.93,-6.07 c -0.228,0 -0.458,0.026 -0.686,0.046 -0.288,0.024 -0.593,0.3 -0.632,0.571 -0.032,0.226 -0.083,0.454 -0.083,0.682 -0.005,3.22 -0.005,6.441 10e-4,9.662 10e-4,0.226 0.016,0.475 0.11,0.672 0.089,0.187 0.267,0.371 0.452,0.462 0.196,0.097 0.446,0.113 0.672,0.113 2.991,0.005 5.981,0.001 8.972,-0.001 0.076,0 0.153,-0.005 0.229,-0.01 0.537,-0.034 0.88,-0.343 0.9,-0.836 C 0.025,4.754 0.031,4.218 0.033,3.681 0.037,2.454 0.034,1.227 0.034,0 Z" /></g><g
         transform="translate(528.4365,576.1987)"
         id="g116"><path
           id="path118"
           style="fill:#25aae3;fill-opacity:1;fill-rule:nonzero;stroke:none"
           d="m 0,0 c 0,-1.611 0.001,-3.222 -0.002,-4.833 -0.001,-0.229 -0.022,-0.459 -0.041,-0.688 -0.023,-0.284 -0.305,-0.604 -0.563,-0.639 -0.228,-0.03 -0.456,-0.077 -0.684,-0.078 -2.915,-0.005 -5.83,-0.006 -8.745,0 -0.228,0 -0.455,0.048 -0.683,0.077 -0.257,0.034 -0.554,0.353 -0.587,0.626 -0.017,0.151 -0.052,0.303 -0.052,0.454 -0.003,3.299 -0.004,6.598 0.003,9.897 0,0.226 0.023,0.472 0.114,0.674 0.088,0.195 0.225,0.403 0.499,0.419 0.304,0.018 0.609,0.068 0.914,0.068 2.762,0.005 5.523,0.005 8.285,0 0.306,0 0.61,-0.038 0.915,-0.066 C -0.354,5.885 -0.076,5.587 -0.056,5.289 -0.029,4.908 -0.002,4.525 0,4.143 0.007,2.762 0.003,1.381 0.003,0 Z" /></g><g
         transform="translate(528.3975,590.021)"
         id="g120"><path
           id="path122"
           style="fill:#25aae3;fill-opacity:1;fill-rule:nonzero;stroke:none"
           d="m 0,0 c 0,-1.531 0.002,-3.063 -0.002,-4.594 -0.001,-0.228 -0.029,-0.457 -0.048,-0.686 -0.023,-0.285 -0.304,-0.578 -0.58,-0.605 -0.228,-0.023 -0.456,-0.059 -0.683,-0.06 -2.91,-0.004 -5.819,-0.004 -8.728,0 -0.229,0 -0.457,0.03 -0.685,0.051 -0.298,0.027 -0.586,0.297 -0.612,0.576 -0.022,0.228 -0.055,0.456 -0.056,0.685 -0.002,3.139 -0.002,6.278 0,9.416 0,0.229 0.03,0.458 0.049,0.686 0.024,0.287 0.302,0.577 0.58,0.608 0.228,0.025 0.455,0.065 0.683,0.065 2.909,0.004 5.818,0.004 8.728,10e-4 0.228,0 0.456,-0.033 0.684,-0.056 0.298,-0.029 0.601,-0.3 0.61,-0.579 C -0.031,4.591 -0.008,3.673 0.002,2.756 0.013,1.837 0.004,0.918 0.004,0 Z" /></g><g
         transform="translate(514.6016,590.0967)"
         id="g124"><path
           id="path126"
           style="fill:#25aae3;fill-opacity:1;fill-rule:nonzero;stroke:none"
           d="m 0,0 c 0,-1.69 0.009,-3.381 -0.004,-5.071 -0.005,-0.676 -0.28,-0.927 -1.009,-0.939 -1.075,-0.018 -2.151,-0.016 -3.226,-0.017 -1.921,-10e-4 -3.843,-0.003 -5.764,0.009 -0.302,0.002 -0.61,0.05 -0.903,0.128 -0.123,0.033 -0.27,0.181 -0.304,0.305 -0.079,0.29 -0.134,0.598 -0.134,0.898 -0.009,3.151 -0.006,6.301 -0.001,9.452 0,0.229 0.035,0.458 0.06,0.687 0.025,0.232 0.382,0.552 0.635,0.576 0.152,0.014 0.305,0.037 0.458,0.037 2.997,0.002 5.994,0.004 8.99,-0.001 C -0.974,6.063 -0.724,6.06 -0.525,5.969 -0.341,5.884 -0.118,5.702 -0.076,5.523 0.012,5.156 0.009,4.763 0.011,4.38 0.019,2.92 0.015,1.46 0.015,0 Z" /></g><g
         transform="translate(627.9316,523.8682)"
         id="g128"><path
           id="path130"
           style="fill:#e9495b;fill-opacity:1;fill-rule:nonzero;stroke:none"
           d="M 0,0 C -1.311,-1.044 -3.813,-1.412 -4.79,-0.185 -5.769,1.043 -4.852,3.399 -3.541,4.444 -2.23,5.488 -0.375,5.341 0.603,4.113 1.58,2.887 1.311,1.044 0,0 m -15.113,-20.336 c -5.538,0 -10.028,4.489 -10.028,10.027 0,5.538 4.49,13.919 10.028,13.919 5.538,0 10.027,-8.381 10.027,-13.919 0,-5.538 -4.489,-10.027 -10.027,-10.027 M -30.071,0 c -1.311,1.044 -1.581,2.887 -0.604,4.113 0.979,1.228 2.834,1.375 4.145,0.331 1.31,-1.045 2.227,-3.401 1.249,-4.629 -0.978,-1.227 -3.481,-0.859 -4.79,0.185 m 8.479,13.162 c 2.035,0.624 4.225,-0.633 4.891,-2.807 0.665,-2.173 -0.116,-5.513 -2.151,-6.137 -2.035,-0.623 -4.552,1.706 -5.219,3.88 -0.665,2.173 0.444,4.441 2.479,5.064 m 8.222,-2.807 c 0.666,2.174 2.855,3.431 4.891,2.807 2.035,-0.623 3.144,-2.891 2.478,-5.064 -0.666,-2.174 -3.184,-4.503 -5.219,-3.88 -2.035,0.624 -2.816,3.964 -2.15,6.137 m 27.155,0.587 H 0.003 v 14.296 c 0,6.293 -4.991,11.394 -11.284,11.394 h -7.291 c -6.293,0 -11.226,-5.101 -11.226,-11.394 V 10.942 h -14.297 c -6.292,0 -11.393,-4.933 -11.393,-11.226 v -7.291 c 0,-6.293 5.101,-11.283 11.393,-11.283 h 14.297 v -13.783 c 0,-6.293 4.933,-11.394 11.226,-11.394 h 7.291 c 6.293,0 11.284,5.101 11.284,11.394 v 13.783 h 13.782 c 6.292,0 11.394,4.99 11.394,11.283 v 7.291 c 0,6.293 -5.102,11.226 -11.394,11.226" /></g></g><text
       style="font-style:normal;font-variant:normal;font-weight:normal;font-stretch:normal;font-size:14px;line-height:1.25;font-family:Vollkorn;-inkscape-font-specification:Vollkorn;letter-spacing:0px;word-spacing:0px;white-space:pre;shape-inside:url(#rect2183);fill:#000000;fill-opacity:1;stroke:none;"
       id="text2181"
       xml:space="preserve" /></g></svg>
